<?xml version="1.0" encoding="UTF-8" standalone="no"?>
<!DOCTYPE svg PUBLIC "-//W3C//DTD SVG 1.1//EN" "http://www.w3.org/Graphics/SVG/1.1/DTD/svg11.dtd">
<svg width="100%" height="100%" viewBox="0 0 748 185" version="1.1" xmlns="http://www.w3.org/2000/svg" xmlns:xlink="http://www.w3.org/1999/xlink" xml:space="preserve" xmlns:serif="http://www.serif.com/" style="fill-rule:evenodd;clip-rule:evenodd;stroke-linejoin:round;stroke-miterlimit:2;">
    <g transform="matrix(1,0,0,1,-166,-447.732)">
        <g transform="matrix(1.66222,0,0,1.66222,-232.933,-356.784)">
            <path d="M286.5,595C286.5,595 286.5,595 286.5,595C281.292,586.231 273.848,579.003 264.93,574.055C250.069,565.919 240,550.126 240,532C240,505.508 261.508,484 288,484C314.492,484 336,505.508 336,532C336,550.126 325.931,565.919 311.087,574.086C302.174,579.031 294.735,586.254 289.531,595.018C289.5,595 289.5,595 289.5,595L289.5,585.202C289.5,574.09 295.162,563.745 304.52,557.755C312.992,552.313 318.605,542.807 318.605,532C318.605,515.108 304.892,501.395 288,501.395C271.108,501.395 257.395,515.108 257.395,532C257.395,542.807 263.008,552.313 271.476,557.76C280.833,563.749 286.493,574.092 286.493,585.202C286.5,590.684 286.5,595 286.5,595ZM288,517.63C295.931,517.63 302.37,524.069 302.37,532C302.37,539.931 295.931,546.37 288,546.37C280.069,546.37 273.63,539.931 273.63,532C273.63,524.069 280.069,517.63 288,517.63Z" style="fill:rgb(115,9,169);"/>
            <g transform="matrix(1,0,0,1,0,-2.48919)">
                <g transform="matrix(1.16917,0,0,1.16917,-78.1554,-84.803)">
                    <path d="M384.961,541.347L377.661,528.097L375.611,528.097L375.611,541.347L367.061,541.347L367.061,506.247L381.411,506.247C384.177,506.247 386.536,506.73 388.486,507.697C390.436,508.664 391.894,509.989 392.861,511.672C393.827,513.355 394.311,515.23 394.311,517.297C394.311,519.63 393.652,521.714 392.336,523.547C391.019,525.38 389.077,526.68 386.511,527.447L394.611,541.347L384.961,541.347ZM375.611,522.047L380.911,522.047C382.477,522.047 383.652,521.664 384.436,520.897C385.219,520.13 385.611,519.047 385.611,517.647C385.611,516.314 385.219,515.264 384.436,514.497C383.652,513.73 382.477,513.347 380.911,513.347L375.611,513.347L375.611,522.047Z" style="fill-rule:nonzero;"/>
                    <path d="M422.961,517.347C422.327,516.18 421.419,515.289 420.236,514.672C419.052,514.055 417.661,513.747 416.061,513.747C413.294,513.747 411.077,514.655 409.411,516.472C407.744,518.289 406.911,520.714 406.911,523.747C406.911,526.98 407.786,529.505 409.536,531.322C411.286,533.139 413.694,534.047 416.761,534.047C418.861,534.047 420.636,533.514 422.086,532.447C423.536,531.38 424.594,529.847 425.261,527.847L414.411,527.847L414.411,521.547L433.011,521.547L433.011,529.497C432.377,531.63 431.302,533.614 429.786,535.447C428.269,537.28 426.344,538.764 424.011,539.897C421.677,541.03 419.044,541.597 416.111,541.597C412.644,541.597 409.552,540.839 406.836,539.322C404.119,537.805 402.002,535.697 400.486,532.997C398.969,530.297 398.211,527.214 398.211,523.747C398.211,520.28 398.969,517.189 400.486,514.472C402.002,511.755 404.111,509.639 406.811,508.122C409.511,506.605 412.594,505.847 416.061,505.847C420.261,505.847 423.802,506.864 426.686,508.897C429.569,510.93 431.477,513.747 432.411,517.347L422.961,517.347Z" style="fill-rule:nonzero;"/>
                    <path d="M461.511,506.247C465.211,506.247 468.444,506.98 471.211,508.447C473.977,509.914 476.119,511.972 477.636,514.622C479.152,517.272 479.911,520.33 479.911,523.797C479.911,527.23 479.152,530.28 477.636,532.947C476.119,535.614 473.969,537.68 471.186,539.147C468.402,540.614 465.177,541.347 461.511,541.347L448.361,541.347L448.361,506.247L461.511,506.247ZM460.961,533.947C464.194,533.947 466.711,533.064 468.511,531.297C470.311,529.53 471.211,527.03 471.211,523.797C471.211,520.564 470.311,518.047 468.511,516.247C466.711,514.447 464.194,513.547 460.961,513.547L456.911,513.547L456.911,533.947L460.961,533.947Z" style="fill-rule:nonzero;"/>
                    <path d="M511.011,526.947C511.011,527.747 510.961,528.58 510.861,529.447L491.511,529.447C491.644,531.18 492.202,532.505 493.186,533.422C494.169,534.339 495.377,534.797 496.811,534.797C498.944,534.797 500.427,533.897 501.261,532.097L510.361,532.097C509.894,533.93 509.052,535.58 507.836,537.047C506.619,538.514 505.094,539.664 503.261,540.497C501.427,541.33 499.377,541.747 497.111,541.747C494.377,541.747 491.944,541.164 489.811,539.997C487.677,538.83 486.011,537.164 484.811,534.997C483.611,532.83 483.011,530.297 483.011,527.397C483.011,524.497 483.602,521.964 484.786,519.797C485.969,517.63 487.627,515.964 489.761,514.797C491.894,513.63 494.344,513.047 497.111,513.047C499.811,513.047 502.211,513.614 504.311,514.747C506.411,515.88 508.052,517.497 509.236,519.597C510.419,521.697 511.011,524.147 511.011,526.947ZM502.261,524.697C502.261,523.23 501.761,522.064 500.761,521.197C499.761,520.33 498.511,519.897 497.011,519.897C495.577,519.897 494.369,520.314 493.386,521.147C492.402,521.98 491.794,523.164 491.561,524.697L502.261,524.697Z" style="fill-rule:nonzero;"/>
                    <rect x="515.511" y="504.347" width="8.55" height="37" style="fill-rule:nonzero;"/>
                    <path d="M534.561,510.547C533.061,510.547 531.836,510.105 530.886,509.222C529.936,508.339 529.461,507.247 529.461,505.947C529.461,504.614 529.936,503.505 530.886,502.622C531.836,501.739 533.061,501.297 534.561,501.297C536.027,501.297 537.236,501.739 538.186,502.622C539.136,503.505 539.611,504.614 539.611,505.947C539.611,507.247 539.136,508.339 538.186,509.222C537.236,510.105 536.027,510.547 534.561,510.547ZM538.811,513.447L538.811,541.347L530.261,541.347L530.261,513.447L538.811,513.447Z" style="fill-rule:nonzero;"/>
                    <path d="M557.561,533.347L563.611,513.447L572.711,513.447L562.811,541.347L552.261,541.347L542.361,513.447L551.511,513.447L557.561,533.347Z" style="fill-rule:nonzero;"/>
                    <path d="M602.611,526.947C602.611,527.747 602.561,528.58 602.461,529.447L583.111,529.447C583.244,531.18 583.802,532.505 584.786,533.422C585.769,534.339 586.977,534.797 588.411,534.797C590.544,534.797 592.027,533.897 592.861,532.097L601.961,532.097C601.494,533.93 600.652,535.58 599.436,537.047C598.219,538.514 596.694,539.664 594.861,540.497C593.027,541.33 590.977,541.747 588.711,541.747C585.977,541.747 583.544,541.164 581.411,539.997C579.277,538.83 577.611,537.164 576.411,534.997C575.211,532.83 574.611,530.297 574.611,527.397C574.611,524.497 575.202,521.964 576.386,519.797C577.569,517.63 579.227,515.964 581.361,514.797C583.494,513.63 585.944,513.047 588.711,513.047C591.411,513.047 593.811,513.614 595.911,514.747C598.011,515.88 599.652,517.497 600.836,519.597C602.019,521.697 602.611,524.147 602.611,526.947ZM593.861,524.697C593.861,523.23 593.361,522.064 592.361,521.197C591.361,520.33 590.111,519.897 588.611,519.897C587.177,519.897 585.969,520.314 584.986,521.147C584.002,521.98 583.394,523.164 583.161,524.697L593.861,524.697Z" style="fill-rule:nonzero;"/>
                    <path d="M615.661,518.097C616.661,516.564 617.911,515.355 619.411,514.472C620.911,513.589 622.577,513.147 624.411,513.147L624.411,522.197L622.061,522.197C619.927,522.197 618.327,522.655 617.261,523.572C616.194,524.489 615.661,526.097 615.661,528.397L615.661,541.347L607.111,541.347L607.111,513.447L615.661,513.447L615.661,518.097Z" style="fill-rule:nonzero;"/>
                    <path d="M657.011,513.447L639.511,554.597L630.311,554.597L636.711,540.397L625.361,513.447L634.911,513.447L641.361,530.897L647.761,513.447L657.011,513.447Z" style="fill-rule:nonzero;"/>
                </g>
                <g transform="matrix(0.528762,0,0,0.528762,156.832,289.317)">
                    <path d="M372.361,519.047C373.294,517.414 374.661,516.08 376.461,515.047C378.261,514.014 380.311,513.497 382.611,513.497C385.077,513.497 387.294,514.08 389.261,515.247C391.227,516.414 392.777,518.055 393.911,520.172C395.044,522.289 395.611,524.747 395.611,527.547C395.611,530.314 395.044,532.78 393.911,534.947C392.777,537.114 391.219,538.797 389.236,539.997C387.252,541.197 385.044,541.797 382.611,541.797C380.244,541.797 378.169,541.28 376.386,540.247C374.602,539.214 373.261,537.897 372.361,536.297L372.361,541.347L367.811,541.347L367.811,504.347L372.361,504.347L372.361,519.047ZM390.961,527.547C390.961,525.48 390.544,523.68 389.711,522.147C388.877,520.614 387.752,519.447 386.336,518.647C384.919,517.847 383.361,517.447 381.661,517.447C379.994,517.447 378.452,517.855 377.036,518.672C375.619,519.489 374.486,520.672 373.636,522.222C372.786,523.772 372.361,525.564 372.361,527.597C372.361,529.664 372.786,531.472 373.636,533.022C374.486,534.572 375.619,535.755 377.036,536.572C378.452,537.389 379.994,537.797 381.661,537.797C383.361,537.797 384.919,537.389 386.336,536.572C387.752,535.755 388.877,534.572 389.711,533.022C390.544,531.472 390.961,529.647 390.961,527.547Z" style="fill:rgb(112,112,112);fill-rule:nonzero;"/>
                    <path d="M425.211,513.947L408.711,554.247L404.011,554.247L409.411,541.047L398.361,513.947L403.411,513.947L412.011,536.147L420.511,513.947L425.211,513.947Z" style="fill:rgb(112,112,112);fill-rule:nonzero;"/>
                    <path d="M461.461,541.347L453.161,527.097L447.661,527.097L447.661,541.347L443.111,541.347L443.111,506.497L454.361,506.497C456.994,506.497 459.219,506.947 461.036,507.847C462.852,508.747 464.211,509.964 465.111,511.497C466.011,513.03 466.461,514.78 466.461,516.747C466.461,519.147 465.769,521.264 464.386,523.097C463.002,524.93 460.927,526.147 458.161,526.747L466.911,541.347L461.461,541.347ZM447.661,523.447L454.361,523.447C456.827,523.447 458.677,522.839 459.911,521.622C461.144,520.405 461.761,518.78 461.761,516.747C461.761,514.68 461.152,513.08 459.936,511.947C458.719,510.814 456.861,510.247 454.361,510.247L447.661,510.247L447.661,523.447Z" style="fill:rgb(112,112,112);fill-rule:nonzero;"/>
                    <path d="M471.811,527.547C471.811,524.747 472.377,522.289 473.511,520.172C474.644,518.055 476.202,516.414 478.186,515.247C480.169,514.08 482.377,513.497 484.811,513.497C487.211,513.497 489.294,514.014 491.061,515.047C492.827,516.08 494.144,517.38 495.011,518.947L495.011,513.947L499.611,513.947L499.611,541.347L495.011,541.347L495.011,536.247C494.111,537.847 492.769,539.172 490.986,540.222C489.202,541.272 487.127,541.797 484.761,541.797C482.327,541.797 480.127,541.197 478.161,539.997C476.194,538.797 474.644,537.114 473.511,534.947C472.377,532.78 471.811,530.314 471.811,527.547ZM495.011,527.597C495.011,525.53 494.594,523.73 493.761,522.197C492.927,520.664 491.802,519.489 490.386,518.672C488.969,517.855 487.411,517.447 485.711,517.447C484.011,517.447 482.461,517.847 481.061,518.647C479.661,519.447 478.544,520.614 477.711,522.147C476.877,523.68 476.461,525.48 476.461,527.547C476.461,529.647 476.877,531.472 477.711,533.022C478.544,534.572 479.661,535.755 481.061,536.572C482.461,537.389 484.011,537.797 485.711,537.797C487.411,537.797 488.969,537.389 490.386,536.572C491.802,535.755 492.927,534.572 493.761,533.022C494.594,531.472 495.011,529.664 495.011,527.597Z" style="fill:rgb(112,112,112);fill-rule:nonzero;"/>
                    <path d="M505.611,527.547C505.611,524.747 506.177,522.289 507.311,520.172C508.444,518.055 510.002,516.414 511.986,515.247C513.969,514.08 516.194,513.497 518.661,513.497C520.794,513.497 522.777,513.989 524.611,514.972C526.444,515.955 527.844,517.247 528.811,518.847L528.811,504.347L533.411,504.347L533.411,541.347L528.811,541.347L528.811,536.197C527.911,537.83 526.577,539.172 524.811,540.222C523.044,541.272 520.977,541.797 518.611,541.797C516.177,541.797 513.969,541.197 511.986,539.997C510.002,538.797 508.444,537.114 507.311,534.947C506.177,532.78 505.611,530.314 505.611,527.547ZM528.811,527.597C528.811,525.53 528.394,523.73 527.561,522.197C526.727,520.664 525.602,519.489 524.186,518.672C522.769,517.855 521.211,517.447 519.511,517.447C517.811,517.447 516.261,517.847 514.861,518.647C513.461,519.447 512.344,520.614 511.511,522.147C510.677,523.68 510.261,525.48 510.261,527.547C510.261,529.647 510.677,531.472 511.511,533.022C512.344,534.572 513.461,535.755 514.861,536.572C516.261,537.389 517.811,537.797 519.511,537.797C521.211,537.797 522.769,537.389 524.186,536.572C525.602,535.755 526.727,534.572 527.561,533.022C528.394,531.472 528.811,529.664 528.811,527.597Z" style="fill:rgb(112,112,112);fill-rule:nonzero;"/>
                    <path d="M543.561,509.497C542.694,509.497 541.969,509.197 541.386,508.597C540.802,507.997 540.511,507.264 540.511,506.397C540.511,505.53 540.802,504.797 541.386,504.197C541.969,503.597 542.694,503.297 543.561,503.297C544.427,503.297 545.152,503.597 545.736,504.197C546.319,504.797 546.611,505.53 546.611,506.397C546.611,507.264 546.319,507.997 545.736,508.597C545.152,509.197 544.427,509.497 543.561,509.497ZM545.811,547.297C545.811,549.73 545.194,551.514 543.961,552.647C542.727,553.78 540.927,554.347 538.561,554.347L535.911,554.347L535.911,550.497L537.811,550.497C539.077,550.497 539.969,550.247 540.486,549.747C541.002,549.247 541.261,548.397 541.261,547.197L541.261,513.947L545.811,513.947L545.811,547.297Z" style="fill:rgb(112,112,112);fill-rule:nonzero;"/>
                    <path d="M551.811,527.547C551.811,524.747 552.377,522.289 553.511,520.172C554.644,518.055 556.202,516.414 558.186,515.247C560.169,514.08 562.377,513.497 564.811,513.497C567.211,513.497 569.294,514.014 571.061,515.047C572.827,516.08 574.144,517.38 575.011,518.947L575.011,513.947L579.611,513.947L579.611,541.347L575.011,541.347L575.011,536.247C574.111,537.847 572.769,539.172 570.986,540.222C569.202,541.272 567.127,541.797 564.761,541.797C562.327,541.797 560.127,541.197 558.161,539.997C556.194,538.797 554.644,537.114 553.511,534.947C552.377,532.78 551.811,530.314 551.811,527.547ZM575.011,527.597C575.011,525.53 574.594,523.73 573.761,522.197C572.927,520.664 571.802,519.489 570.386,518.672C568.969,517.855 567.411,517.447 565.711,517.447C564.011,517.447 562.461,517.847 561.061,518.647C559.661,519.447 558.544,520.614 557.711,522.147C556.877,523.68 556.461,525.48 556.461,527.547C556.461,529.647 556.877,531.472 557.711,533.022C558.544,534.572 559.661,535.755 561.061,536.572C562.461,537.389 564.011,537.797 565.711,537.797C567.411,537.797 568.969,537.389 570.386,536.572C571.802,535.755 572.927,534.572 573.761,533.022C574.594,531.472 575.011,529.664 575.011,527.597Z" style="fill:rgb(112,112,112);fill-rule:nonzero;"/>
                    <path d="M598.611,513.497C600.977,513.497 603.052,514.014 604.836,515.047C606.619,516.08 607.944,517.38 608.811,518.947L608.811,513.947L613.411,513.947L613.411,541.947C613.411,544.447 612.877,546.672 611.811,548.622C610.744,550.572 609.219,552.097 607.236,553.197C605.252,554.297 602.944,554.847 600.311,554.847C596.711,554.847 593.711,553.997 591.311,552.297C588.911,550.597 587.494,548.28 587.061,545.347L591.561,545.347C592.061,547.014 593.094,548.355 594.661,549.372C596.227,550.389 598.111,550.897 600.311,550.897C602.811,550.897 604.852,550.114 606.436,548.547C608.019,546.98 608.811,544.78 608.811,541.947L608.811,536.197C607.911,537.797 606.577,539.13 604.811,540.197C603.044,541.264 600.977,541.797 598.611,541.797C596.177,541.797 593.969,541.197 591.986,539.997C590.002,538.797 588.444,537.114 587.311,534.947C586.177,532.78 585.611,530.314 585.611,527.547C585.611,524.747 586.177,522.289 587.311,520.172C588.444,518.055 590.002,516.414 591.986,515.247C593.969,514.08 596.177,513.497 598.611,513.497ZM608.811,527.597C608.811,525.53 608.394,523.73 607.561,522.197C606.727,520.664 605.602,519.489 604.186,518.672C602.769,517.855 601.211,517.447 599.511,517.447C597.811,517.447 596.261,517.847 594.861,518.647C593.461,519.447 592.344,520.614 591.511,522.147C590.677,523.68 590.261,525.48 590.261,527.547C590.261,529.647 590.677,531.472 591.511,533.022C592.344,534.572 593.461,535.755 594.861,536.572C596.261,537.389 597.811,537.797 599.511,537.797C601.211,537.797 602.769,537.389 604.186,536.572C605.602,535.755 606.727,534.572 607.561,533.022C608.394,531.472 608.811,529.664 608.811,527.597Z" style="fill:rgb(112,112,112);fill-rule:nonzero;"/>
                    <path d="M633.061,541.797C630.494,541.797 628.169,541.214 626.086,540.047C624.002,538.88 622.369,537.222 621.186,535.072C620.002,532.922 619.411,530.43 619.411,527.597C619.411,524.797 620.019,522.322 621.236,520.172C622.452,518.022 624.111,516.372 626.211,515.222C628.311,514.072 630.661,513.497 633.261,513.497C635.861,513.497 638.211,514.072 640.311,515.222C642.411,516.372 644.069,518.014 645.286,520.147C646.502,522.28 647.111,524.764 647.111,527.597C647.111,530.43 646.486,532.922 645.236,535.072C643.986,537.222 642.294,538.88 640.161,540.047C638.027,541.214 635.661,541.797 633.061,541.797ZM633.061,537.797C634.694,537.797 636.227,537.414 637.661,536.647C639.094,535.88 640.252,534.73 641.136,533.197C642.019,531.664 642.461,529.797 642.461,527.597C642.461,525.397 642.027,523.53 641.161,521.997C640.294,520.464 639.161,519.322 637.761,518.572C636.361,517.822 634.844,517.447 633.211,517.447C631.544,517.447 630.019,517.822 628.636,518.572C627.252,519.322 626.144,520.464 625.311,521.997C624.477,523.53 624.061,525.397 624.061,527.597C624.061,529.83 624.469,531.714 625.286,533.247C626.102,534.78 627.194,535.922 628.561,536.672C629.927,537.422 631.427,537.797 633.061,537.797Z" style="fill:rgb(112,112,112);fill-rule:nonzero;"/>
                </g>
            </g>
        </g>
    </g>
</svg>
